HIERARCHY
ROOT Hips
{
  OFFSET 0 0 0
  CHANNELS 6 Xposition Yposition Zposition Zrotation Yrotation Xrotation
  JOINT LeftThigh
  {
    OFFSET 8.409438 0 -5.917753
    CHANNELS 3 Zrotation Yrotation Xrotation
    JOINT LeftLeg
    {
      OFFSET 0 0 -42.358652
      CHANNELS 3 Zrotation Yrotation Xrotation
      JOINT LeftFoot
      {
        OFFSET 0 0 -39.357303
        CHANNELS 3 Zrotation Yrotation Xrotation
      }
    }
  }
  JOINT RightThigh
  {
    OFFSET -8.409438 0 -5.917753
    CHANNELS 3 Zrotation Yrotation Xrotation
    JOINT RightLeg
    {
      OFFSET 0 0 -42.358652
      CHANNELS 3 Zrotation Yrotation Xrotation
      JOINT RightFoot
      {
        OFFSET 0 0 -39.357303
        CHANNELS 3 Zrotation Yrotation Xrotation
      }
    }
  }
  JOINT SpineLow
  {
    OFFSET 0 0 4.719101
    CHANNELS 3 Zrotation Yrotation Xrotation
    JOINT SpineMid
    {
      OFFSET 0 0 12.899191
      CHANNELS 3 Zrotation Yrotation Xrotation
      JOINT Chest
      {
        OFFSET 0 0 12.899191
        CHANNELS 3 Zrotation Yrotation Xrotation
        JOINT LeftShoulder
        {
          OFFSET 7.550562 1.41573 9.438202
          CHANNELS 3 Zrotation Yrotation Xrotation
          JOINT LeftArm
          {
            OFFSET 9.155056 0 4.247191
            CHANNELS 3 Zrotation Yrotation Xrotation
            JOINT LeftForearm
            {
              OFFSET 0 0 25.771955
              CHANNELS 3 Zrotation Yrotation Xrotation
              JOINT LeftHand
              {
                OFFSET 0 0 25.197169
                CHANNELS 3 Zrotation Yrotation Xrotation
              }
            }
          }
        }
        JOINT RightShoulder
        {
          OFFSET -7.550562 1.41573 9.438202
          CHANNELS 3 Zrotation Yrotation Xrotation
          JOINT RightArm
          {
            OFFSET -9.155056 0 4.247191
            CHANNELS 3 Zrotation Yrotation Xrotation
            JOINT RightForearm
            {
              OFFSET 0 0 -25.771955
              CHANNELS 3 Zrotation Yrotation Xrotation
              JOINT RightHand
              {
                OFFSET 0 0 -25.197169
                CHANNELS 3 Zrotation Yrotation Xrotation
              }
            }
          }
        }
        JOINT Neck
        {
          OFFSET 0 0 15.101124
          CHANNELS 3 Zrotation Yrotation Xrotation
          JOINT Head
          {
            OFFSET 0 0 11.325843
            CHANNELS 3 Zrotation Yrotation Xrotation
            End Site
            {
              OFFSET 0 0 14.157303
            }
          }
        }
      }
    }
  }
}
MOTION
Frames: 13
Frame Time: 0.0
0.0  101.685394  0.0  1.911859  36.23273  -97.685325  0.490941  -21.508374  -1.07884  -18.8997  18.64506  18.760033  -0.527861  3.447666  2.861281  -25.836759  15.019783  1.147604  -9.576064  6.544377  19.921287  -0.360483  3.880598  -1.700886  -0.610809  -0.33816  2.770556  -1.70586  -0.852956  7.581416  -1.70586  -0.852956  7.581416  -11.240897  28.925194  7.322221  115.101316  46.555991  166.492224  -33.232732  21.158656  81.329657  51.734605  -26.851309  -38.014115  19.808866  -8.372917  12.861178  125.821676  40.734511  37.555423  -29.951315  -21.518531  -104.664661  62.566209  -3.650612  24.587157  -6.820363  -1.38083  -0.682971  -5.116575  -1.028154  -0.527694  
0.0  101.685394  0.0  2.027601  36.836226  -97.514789  0.195875  -21.318568  -1.178716  -19.090862  18.616435  18.589601  -0.539657  3.429761  2.858334  -26.081213  15.111774  1.184982  -9.762064  6.557096  19.758556  -0.443854  3.876699  -1.735432  -0.513531  -0.302624  2.770846  -1.43627  -0.767122  7.580181  -1.43627  -0.767122  7.580182  -11.501333  28.781553  7.069193  114.659511  46.621406  166.854046  -33.259078  21.012176  81.231919  52.544154  -26.860731  -38.627185  20.286048  -8.606301  12.694161  127.57878  40.902162  38.233502  -29.84467  -21.530137  -105.390973  60.626813  -3.264581  25.809625  -7.419643  -1.571419  -0.702414  -5.566198  -1.170243  -0.545956  
0.0  101.685394  0.0  2.036047  37.364612  -97.425096  0.015803  -21.263057  -1.271832  -19.321741  18.617791  18.40509  -0.549931  3.416615  2.869207  -26.224304  15.151222  1.307518  -9.848625  6.520603  19.616073  -0.649647  3.854386  -1.792068  -0.391361  -0.277202  2.766414  -1.099857  -0.711815  7.566247  -1.099857  -0.711815  7.566246  -11.973795  28.541194  6.786135  114.825181  46.56085  167.516398  -33.10274  20.90782  81.262951  53.20385  -26.857724  -39.117471  20.762163  -8.898098  12.615342  129.136487  41.079779  38.947339  -31.367559  -20.986811  -104.138169  58.37896  -2.731023  25.038606  -8.10042  -1.756797  -0.6898  -6.076831  -1.30873  -0.540717  
0.0  101.685394  0.0  2.097582  38.017762  -97.257274  -0.29228  -21.135556  -1.415939  -19.457134  18.592314  18.283978  -0.628856  3.406466  2.846031  -26.51594  15.176907  1.357557  -10.056694  6.543676  19.433008  -0.735329  3.851177  -1.826365  -0.311187  -0.255394  2.746759  -0.878346  -0.661736  7.511366  -0.878346  -0.661736  7.511367  -12.086603  28.403915  6.660618  114.706149  46.526512  168.174523  -33.067906  20.883874  81.229646  53.733759  -26.886124  -39.497159  21.258421  -9.086057  12.567014  130.535452  41.188093  39.544467  -31.370306  -20.795044  -104.551473  57.136995  -2.830009  25.666326  -8.686151  -1.902892  -0.667097  -6.516101  -1.41803  -0.52746  
0.0  101.685394  0.0  2.073314  38.695934  -97.123927  -0.527515  -21.112306  -1.590449  -19.730143  18.597061  18.091554  -0.672529  3.413357  2.848998  -26.866702  15.161796  1.40463  -10.161756  6.545229  19.287286  -0.902043  3.818343  -1.881547  -0.222599  -0.245553  2.713229  -0.635113  -0.645267  7.418747  -0.635113  -0.645267  7.418747  -12.463684  28.234379  6.542377  115.08752  46.433824  169.032645  -33.012892  20.898256  81.222658  54.149356  -26.908341  -39.635377  21.795532  -9.342848  12.620497  131.565217  41.283116  40.103987  -31.497552  -20.363186  -104.798007  55.937964  -3.136721  25.802076  -9.382693  -2.018772  -0.621281  -7.038352  -1.504964  -0.49706  
0.0  101.685394  0.0  2.090469  39.377482  -96.989956  -0.816426  -21.038075  -1.74689  -19.846445  18.588369  18.028032  -0.805153  3.406723  2.791969  -27.130673  15.136443  1.485313  -10.437288  6.593859  19.111877  -0.969347  3.8035  -1.917615  -0.157454  -0.238398  2.680328  -0.456189  -0.633279  7.328134  -0.456189  -0.633279  7.328133  -12.432526  28.147026  6.570195  115.185545  46.343465  169.851592  -32.919967  20.945614  81.271169  54.578558  -26.931693  -39.775573  22.336958  -9.492476  12.665628  132.336073  41.290642  40.447493  -31.725425  -19.677286  -104.903481  54.78927  -3.659876  25.381046  -9.932163  -2.103187  -0.571879  -7.450261  -1.568589  -0.463205  
0.0  101.685394  0.0  2.098269  40.164797  -96.850053  -1.114068  -21.001877  -1.9335  -20.153276  18.623082  17.863683  -0.849202  3.434752  2.775031  -27.533396  15.158562  1.541838  -10.589196  6.592329  18.977314  -1.149511  3.767553  -1.974777  -0.08614  -0.230632  2.668836  -0.260561  -0.620029  7.296004  -0.260561  -0.620029  7.296004  -12.80007  27.949281  6.37818  115.630641  46.199312  170.788435  -32.817903  20.930446  81.341092  55.022814  -26.916109  -39.845621  22.779233  -9.576733  12.570933  132.772502  41.335394  40.646756  -33.830197  -18.044154  -102.772985  52.731559  -3.959762  22.330106  -10.695452  -2.186542  -0.63597  -8.022901  -1.62937  -0.515395  
0.0  101.685394  0.0  2.095962  40.844065  -96.768484  -1.362584  -20.976721  -2.069531  -20.303563  18.655175  17.839226  -0.999951  3.439124  2.68838  -27.732822  15.12098  1.697767  -10.912662  6.647107  18.791166  -1.22258  3.746429  -2.014062  -0.018718  -0.223209  2.663843  -0.075659  -0.607208  7.281711  -0.075659  -0.607208  7.281711  -12.831162  27.804092  6.335496  115.795863  46.094277  171.64685  -32.687216  20.900522  81.463935  55.502542  -26.86114  -39.994827  23.127203  -9.525182  12.49942  133.140652  41.424226  40.672441  -34.113698  -17.180172  -102.661452  51.913959  -4.621088  21.032477  -11.264273  -2.314572  -0.666404  -8.449591  -1.724343  -0.542644  
0.0  101.685394  0.0  2.104461  41.680889  -96.632686  -1.780978  -20.917354  -2.327625  -20.532673  18.724715  17.789363  -1.067995  3.45868  2.648652  -28.063326  15.086602  1.805812  -11.309444  6.726456  18.606575  -1.315676  3.694991  -2.062301  0.036653  -0.210253  2.674712  0.076814  -0.577947  7.310909  0.076814  -0.577947  7.310909  -13.241127  27.55213  6.03353  116.156581  45.927709  172.517996  -32.654466  20.805192  81.55429  56.056693  -26.762443  -40.15629  23.700573  -9.540989  12.38538  133.129533  41.614789  40.808083  -34.415766  -16.31727  -102.52881  51.260726  -5.264523  19.593782  -12.020841  -2.46604  -0.796568  -9.017469  -1.834707  -0.646173  
0.0  101.685394  0.0  2.039696  42.317761  -96.582571  -1.935335  -20.970809  -2.509403  -20.714209  18.788007  17.802732  -1.253598  3.47197  2.554155  -28.121551  14.969427  1.981463  -11.716093  6.795728  18.43856  -1.36879  3.669593  -2.08471  0.103333  -0.205193  2.684189  0.259302  -0.571538  7.33624  0.259302  -0.571538  7.33624  -13.328256  27.359053  5.952367  116.34869  45.817654  173.351526  -32.545583  20.721267  81.736358  56.565104  -26.603719  -40.357606  23.950388  -9.481586  12.201835  133.243051  41.655578  40.720472  -34.711382  -15.478249  -102.400659  50.749439  -5.814728  18.217399  -12.588219  -2.650746  -0.87009  -9.443273  -1.971133  -0.707453  
0.0  101.685394  0.0  1.985482  43.113349  -96.464082  -2.269194  -20.965743  -2.826031  -20.918836  18.87497  17.837919  -1.387195  3.495543  2.485043  -28.250469  14.908321  2.110144  -12.221993  6.840055  18.280774  -1.445586  3.598599  -2.104929  0.128183  -0.19121  2.676499  0.328747  -0.53609  7.315054  0.328747  -0.53609  7.315054  -13.408538  27.092348  5.881459  116.616183  45.649733  174.209215  -32.540174  20.595841  81.840487  56.992671  -26.413009  -40.443443  24.579322  -9.625986  12.191437  133.031742  41.745839  40.851802  -34.958742  -14.694205  -102.345278  50.331431  -6.175275  17.11212  -13.216843  -2.817893  -0.934071  -9.914964  -2.094386  -0.761835  
0.0  101.685394  0.0  1.862498  43.686183  -96.442444  -2.331066  -21.07119  -3.03085  -21.133518  18.949949  17.849108  -1.543202  3.505827  2.396567  -28.185823  14.79236  2.278984  -12.648302  6.829557  18.152856  -1.472863  3.575203  -2.100891  0.182565  -0.208282  2.663714  0.475419  -0.588612  7.279551  0.475419  -0.588612  7.279551  -13.490196  27.044432  5.892766  116.925356  45.494771  175.016937  -32.468436  20.516994  82.02783  57.434126  -26.159171  -40.623533  24.75695  -9.615281  12.167958  132.992393  41.632583  40.791336  -35.157642  -14.05455  -102.347166  49.974007  -6.303498  16.352601  -13.721304  -2.91121  -0.951357  -10.293321  -2.163347  -0.779261  
0.0  101.685394  0.0  1.830809  44.55546  -96.262982  -2.621937  -21.092455  -3.329045  -21.331379  19.049376  17.897363  -1.631847  3.525022  2.307777  -28.43575  14.734854  2.330443  -13.071834  6.848822  18.026709  -1.560021  3.499702  -2.115878  0.176675  -0.200821  2.634425  0.460419  -0.5674  7.19959  0.460419  -0.5674  7.19959  -13.559666  26.85381  5.896775  117.302805  45.288441  175.85296  -32.468769  20.416132  82.160533  57.80297  -25.843202  -40.811863  25.171926  -9.774387  12.212162  132.75814  41.542979  40.855478  -35.291028  -13.603839  -102.417777  49.694405  -6.179344  15.937064  -14.308004  -3.014001  -0.97906  -10.733385  -2.239041  -0.805291  
